<svg xmlns="http://www.w3.org/2000/svg" viewBox="0 0 40 40">
  <g fill="none" fill-rule="evenodd" stroke="#000" stroke-linecap="round" stroke-linejoin="round" transform="translate(2.275 3)">
    <g transform="translate(8.725 8)">
      <path d="M5.05120537,16.8578694 C5.05120537,12.7264441 -2.2872674,9.96712409 2.27662417,3.07214889 C6.06389124,-2.64952791 16.7741935,0.191348068 16.7741935,6.90317071 C16.7741935,13.9443133 12.6925784,12.192028 11.579561,17.8541428 C11.579561,19.1305862 5.99723887,17.8541428 5.99723887,20.3558488 C5.99723887,22.8575548 11.6446522,20.7332639 11.579561,22.6180448 C11.5430547,23.6751188 7.42872613,21.991182 6.51148246,23.0482162 C5.59423879,24.1052504 6.37849023,26.4191779 10.4974557,25.4987057"/>
      <path d="M9.22580645,15.8361663 C9.62959014,10.474471 9.11640155,11.8833938 6.8826639,11.2934636 C4.64892625,10.7035334 4.68875752,8.62600316 5.77617762,6.84073102 C8.66596122,2.09642828 13.5827441,8.62600316 8.80645161,8.62600316"/>
    </g>
    <path d="M7.27213894 24C5.524433 25.0565197 6.31764018 24.7028333 4.56993424 25.759353M4.56993424 16.4464338C2.86335402 16.5178554 2.43167701 16.4821446.725096784 16.5535662M6.79672037 7.01774889C5.10617917 5.34516593 4.84483746 5.03756303 3.62013993 4.17345383M15.3503246 3.53211048C15.2668394 2.68807365 14.831173 1.5419973 14.7476878.697960475M24.7250968 4.50038736C25.3552799 3.00025824 25.4935258 2.70508954 26.1237089 1.20496042M30.7250968 9.46319674C32.1623036 8.30879783 31.6370825 8.66554548 33.0742893 7.51114656M30.7250968 17.1929965C32.2083644 17.3976655 32.5167324 17.4455185 34 17.6501875M27.7250968 24C28.5815321 24.4243511 28.8457532 24.7935158 30.0052033 25.518706"/>
  </g>
</svg>
