<svg xmlns="http://www.w3.org/2000/svg" viewBox="0 0 40 40">
  <g fill="none" fill-rule="evenodd" stroke="#000" stroke-linecap="round" stroke-linejoin="round" transform="translate(11 11)">
    <path d="M5.05120537,16.8578694 C5.05120537,12.7264441 -2.2872674,9.96712409 2.27662417,3.07214889 C6.06389124,-2.64952791 16.7741935,0.191348068 16.7741935,6.90317071 C16.7741935,13.9443133 12.6925784,12.192028 11.579561,17.8541428 C11.579561,19.1305862 5.99723887,17.8541428 5.99723887,20.3558488 C5.99723887,22.8575548 11.6446522,20.7332639 11.579561,22.6180448 C11.5430547,23.6751188 7.42872613,21.991182 6.51148246,23.0482162 C5.59423879,24.1052504 6.37849023,26.4191779 10.4974557,25.4987057"/>
    <path d="M9.22580645,15.8361663 C9.62959014,10.474471 9.11640155,11.8833938 6.8826639,11.2934636 C4.64892625,10.7035334 4.68875752,8.62600316 5.77617762,6.84073102 C8.66596122,2.09642828 13.5827441,8.62600316 8.80645161,8.62600316"/>
  </g>
</svg>
