<svg xmlns="http://www.w3.org/2000/svg" viewBox="0 0 40 40">
  <g fill="none" fill-rule="evenodd" stroke="#000" stroke-linecap="round" stroke-linejoin="round" transform="translate(-244 -142)">
    <path d="M7.72793622,0.90391482 C5.94369199,0.90391482 1.21108176,0.737550116 0.764573729,1.90918154 C-0.665757831,5.66235345 0.127332438,15.6343925 1.37289929,22.3540001 C1.79592454,24.6361447 4.14340645,23.3346351 14.7163145,23.6771569 C16.696909,23.7413206 19.7796796,23.378235 20.4336136,21.5121842 C21.0024165,19.8890615 20.4336136,10.8444174 20.4336136,7.87280004" transform="translate(252.272 150.423)"/>
    <path d="M265.211942 159.686001L261.668122 160.555321C261.887254 158.760912 262.133329 157.400869 262.406349 156.475194 271.783821 144.830354 271.855204 141.54298 275.655982 146.698363L265.211942 159.686001zM257 164.538809C260.917314 164.512936 264.834627 164.487064 268.751941 164.461191M257.288536 169.407061C260.87813 169.162708 264.467723 168.918355 268.057316 168.674002"/>
  </g>
</svg>
