<svg xmlns="http://www.w3.org/2000/svg" width="1024" height="80" viewBox="0 0 1024 80">
  <path fill="none" stroke="#000" stroke-linecap="round" stroke-linejoin="round" d="M0,58.9572867 C1.83726765,47.4053652 10.0016115,31.188338 29.4645376,28.5837435 C48.9274637,25.9791491 56.7811202,27.8453272 81.1909141,47.4053652 C88.5868953,53.3319075 96.6399113,58.4843811 112.49647,56.0504141 C128.353029,53.6164472 139.180736,28.125294 169.486401,28.5837435 C199.792065,29.0421931 209.062171,57.037844 242.614856,58.9572867 C276.167542,60.8767293 278.404034,29.9238269 323.396739,29.4553015 C368.389443,28.9867761 369.068566,50.199644 401.338202,56.4030677 C433.607839,62.6064913 447.191519,29.3898087 487.001133,28.9867761 C526.810747,28.5837435 528.898864,60.7961228 559.086347,56.4030677 C589.273831,52.0100125 590.433132,25.1792059 633.34741,21.4818085 C662.228675,18.9934639 675.57998,26.200952 696.871921,41.7729849 C716.190382,55.901698 728.216175,57.8039615 747.739671,52.1309223 C767.599825,46.3600582 767.501255,24.1949406 800.846903,24.1949406 C834.192551,24.1949406 842.930509,35.1682884 855.50719,42.851097 C869.273659,51.2607198 892.29728,59.0046468 906.385016,53.2896409 C920.89001,47.4053652 939.617385,23.4151182 966.442056,21.4818085 C993.266727,19.5484989 1010.27192,35.5782485 1024,57.6826961"/>
</svg>
