<svg xmlns="http://www.w3.org/2000/svg" viewBox="0 0 40 40">
  <g fill="none" fill-rule="evenodd" stroke="#000" stroke-linecap="round" stroke-linejoin="round" transform="translate(8 4.5)">
    <path d="M15.7047944,24.9198305 C15.7047944,21.3162189 8.72518543,24.1171066 7.93147648,20.7754154 C6.6252021,15.2757099 21.8084804,15.9234297 22.7662224,21.5942002 C24.2105095,30.1457944 18.931015,35.1691494 7.80617629,33.7664458 C0.506753413,32.8460795 -2.3416484,13.7468531 2.15896809,12.3294942 C3.92420047,11.7735775 5.1909451,12.5614368 5.95920199,14.693072 C5.96481647,12.4126001 6.6222413,11.1890315 7.93147648,11.0223659 C10.309668,10.7196223 11.0221886,13.5338856 11.8033804,16.8210382"/>
    <path d="M9.58471951 11.3215673C8.69697924 6.548612 8.02568154.738057498 11.152825.486275634 14.7417912.197310128 15.1410512 13.3615891 15.8610455 13.1558547 16.7525572 12.9011103 16.3474524-.671429588 21.3260143.0259807511 22.6850712.216361099 22.8705524 1.8011913 22.957246 3.28649897 23.2333849 8.01753882 22.4559175 13.8008191 21.3260143 18.4274963M.175756384 15.8250922C-.0532235111 18.8632562 2.26932209 20.1387162 3.39792122 19.9906758 5.07284065 19.7709736 5.91418591 18.107415 5.92195699 15 6.46504071 17.0282568 7.15772171 18.232405 8 18.6124448"/>
  </g>
</svg>
