<svg xmlns="http://www.w3.org/2000/svg" viewBox="0 0 40 40">
  <g fill="none" fill-rule="evenodd" stroke="#000" stroke-linecap="round" stroke-linejoin="round" transform="translate(-360 -142)">
    <path d="M19.5002102.48865118C18.2204738-.656125636 1.21108176.417224176.764573729 1.5888556-.665757831 5.34202751.127332438 18.3140665 1.37289929 25.0336741 1.79592454 27.3158188 4.14340645 26.0143091 14.7163145 26.3568309 16.696909 26.4209946 19.7796796 26.057909 20.4336136 24.1918582 21.0024165 22.5687356 21.0067531 2.58546782 19.5002102.48865118zM.727936222 18.0574461C8.39460289 17.8567118 12.6271045 18.2581804 20.2937712 18.0574461" transform="translate(369.272 148.744)"/>
    <path d="M380.524622,170.095583 C378.686026,169.128747 377.765251,171.054821 378.465982,171.641722 C379.159659,172.222716 380.326124,172.029267 379.549446,170.82333 L380.524622,170.095583 Z"/>
  </g>
</svg>
