<svg xmlns="http://www.w3.org/2000/svg" viewBox="0 0 40 40">
  <g fill="none" fill-rule="evenodd" stroke="#000" stroke-linecap="round" stroke-linejoin="round" transform="translate(-360 -142)">
    <g transform="translate(366 150)">
      <path d="M13.060061.449144659C11.1309679.449144659 2.30796993.371261197 1.8252134 1.64416793.278764402 5.72176236.478528716 15.6893709 1.8252134 22.9898184 2.28258077 25.4692306 7.82053404 23.9158476 19.2517739 24.2879768 21.3931574 24.3576868 25.0127137 24.5312679 25.7197356 22.5039165 26.3347152 20.7404918 27.222259 3.2473813 25.7197356 1.64416793 24.2172122.0409545532 14.9891541.449144659 13.060061.449144659zM1.08033244 7.33643201C9.53053443 7.16070408 17.9807364 6.98497616 26.4309384 6.80924823M5.85989377 7.7531021C6.1932271 12.4197688 6.3439047 19.2717623 6.67723804 23.938429"/>
      <path d="M5.16168133 3.39921262C4.91801876 3.10706555 4.12581226 3.59052607 4.49865919 4.20977651 4.87150612 4.82902695 5.57978533 4.22010056 5.25841861 3.94138209M8.51302234 3.50540045C8.26935977 3.21325338 7.47650187 3.47150225 7.8493488 4.0907527 8.22219574 4.71000314 8.83438907 3.96662163 8.51302234 3.68790317M11.576326 3.62890952C11.3326634 3.33676245 10.5680663 3.32305204 11.0392732 4.03979707 11.51048 4.7565421 12.2861436 3.97954664 11.9150088 3.39498147"/>
    </g>
    <path d="M375.964172 161.589759C380.191849 161.449817 384.419527 161.309874 388.647204 161.169932M376.191084 165.643053C380.343124 165.624844 384.495164 165.606635 388.647204 165.588426M376.566216 169.995834C380.211268 170.184864 384.39285 169.806804 388.037902 169.995834"/>
  </g>
</svg>
