<svg xmlns="http://www.w3.org/2000/svg" viewBox="0 0 80 40">
  <g fill="none" fill-rule="evenodd" stroke="#000" stroke-linecap="round" stroke-linejoin="round" transform="translate(-335 -336)">
    <g transform="translate(338.003 351.783)">
      <path d="M0 16.1514283C2.99489922 15.9284275 2.99489922 15.5443991 6.61887576 14.9373699M20.5496562 7.94167532C14.1740595 1.40859952 11.9442117 8.19506178 12.4657544 10.0993735 13.5055116 13.8958447 18.0871021 12.6609166 20.2363689 14.817392 21.1088633 15.6928127 21.3392431 17.633392 20.8493223 18.5110599 19.4555016 21.0080178 13.6756221 19.5927967 12.7294606 16.4306607M24.7104951 19.010562C26.1701257 4.27497784 25.6040833 5.85631319 34.7189597 17.4720774M25.2223348 14.4684016C29.1478084 14.5334321 29.3946944 14.5334321 31.3742975 13.30126M32.8745075 6.53307233C40.4348096 11.0718514 37.9917012 12.4058756 41.206802 5.97767472M38.8521822 10.5073247C39.3563635 12.9435359 39.8605448 15.3797471 40.3647261 17.8159583M50.4257373 4.62277059C51.0662737 8.04539455 51.7068102 11.4680185 52.3473466 14.8906425M52.2039591 9.2615047C54.9776215 8.96130176 57.7512839 8.66109881 60.5249462 8.36089587M57.7430178 4.82630552C58.4130424 8.43893976 59.083067 12.051574 59.7530916 15.6642082M63.1752721 4.49107151C63.8772237 7.79108674 64.5791754 11.091102 65.281127 14.3911172"/>
      <polyline points="71.342 0 71.342 3.086 71.342 6.293 71.342 6.525 71.342 6.926 71.342 7.331 71.342 7.645 71.342 8.05 71.342 8.282 71.342 8.442 71.342 8.601 71.342 8.761 71.342 8.858 71.342 8.902 71.342 8.946 71.342 8.989 71.342 9.033"/>
      <path d="M70.6370924,12.4237331 C70.6370924,13.1798052 71.0379202,13.3415158 71.6370924,13.1020293"/>
    </g>
    <path d="M339.342369,364.541801 C336.691865,368.973989 335.715859,367.886445 341.312776,370.374137"/>
  </g>
</svg>
