<svg xmlns="http://www.w3.org/2000/svg" viewBox="0 0 80 40">
  <g fill="none" fill-rule="evenodd" stroke="#000" stroke-linecap="round" stroke-linejoin="round" transform="translate(2.003 15.783)">
    <path d="M0 16.1514283C2.99489922 15.9284275 2.99489922 15.5443991 6.61887576 14.9373699M21.5496562 7.94167532C15.1740595 1.40859952 12.9442117 8.19506178 13.4657544 10.0993735 14.5055116 13.8958447 19.0871021 12.6609166 21.2363689 14.817392 22.1088633 15.6928127 22.3392431 17.633392 21.8493223 18.5110599 20.4555016 21.0080178 14.6756221 19.5927967 13.7294606 16.4306607M25.7104951 19.010562C27.1701257 4.27497784 26.6040833 5.85631319 35.7189597 17.4720774M26.2223348 14.4684016C30.1478084 14.5334321 30.3946944 14.5334321 32.3742975 13.30126M33.8745075 6.53307233C41.4348096 11.0718514 38.9917012 12.4058756 42.206802 5.97767472M39.8521822 10.5073247C40.3563635 12.9435359 40.8605448 15.3797471 41.3647261 17.8159583M51.4257373 4.62277059C52.0662737 8.04539455 52.7068102 11.4680185 53.3473466 14.8906425M53.2039591 9.2615047C55.9776215 8.96130176 58.7512839 8.66109881 61.5249462 8.36089587M58.7430178 4.82630552C59.4130424 8.43893976 60.083067 12.051574 60.7530916 15.6642082M64.1752721 4.49107151C64.8772237 7.79108674 65.5791754 11.091102 66.281127 14.3911172"/>
    <polyline points="72.342 0 72.342 3.086 72.342 6.293 72.342 6.525 72.342 6.926 72.342 7.331 72.342 7.645 72.342 8.05 72.342 8.282 72.342 8.442 72.342 8.601 72.342 8.761 72.342 8.858 72.342 8.902 72.342 8.946 72.342 8.989 72.342 9.033"/>
    <path d="M71.6370924,12.4237331 C71.6370924,13.1798052 72.0379202,13.3415158 72.6370924,13.1020293"/>
  </g>
</svg>
