<svg xmlns="http://www.w3.org/2000/svg" viewBox="0 0 40 40">
  <g fill="none" fill-rule="evenodd" stroke="#000" stroke-linecap="round" stroke-linejoin="round" transform="translate(7 9)">
    <path d="M12.2317057.00410606044C10.3026127.00410606044 2.30940003.178891975 1.8266435 1.4517987.280194494 5.52939314.791164564 15.2620226 2.13784925 22.5624701 2.59521662 25.0418823 6.21445442 23.6278708 17.6456943 24 19.7870778 24.06971 25.2970791 24.5898215 26.0041009 22.5624701 26.6190805 20.7990454 27.0845777 3.05501208 25.5820543 1.4517987 24.0795309-.151414669 14.1607988.00410606044 12.2317057.00410606044zM1 7.02461847C9.45020198 6.84889054 17.900404 6.67316261 26.3506059 6.49743469"/>
    <path d="M5.08134889 3.08739908C4.83768632 2.79525201 4.04547981 3.27871252 4.41832675 3.89796297 4.79117368 4.51721341 5.49945289 3.90828702 5.17808616 3.62956855M8.4326899 3.1935869C8.18902733 2.90143983 7.39616943 3.15968871 7.76901636 3.77893915 8.14186329 4.3981896 8.75405662 3.65480809 8.4326899 3.37608962M11.4959935 3.31709598C11.2523309 3.02494891 10.4877339 3.0112385 10.9589407 3.72798353 11.4301475 4.44472856 12.2058111 3.66773309 11.8346763 3.08316793M1.67599946 17.8015719C4.18784329 13.8471413 6.64429081 11.869926 9.04534205 11.869926 12.6469189 11.869926 14.8667574 21.4624008 15.5852192 21.4624008 16.303681 21.4624008 18.9412005 16.8158843 21.5140563 16.8158843 23.2292935 16.8158843 24.6827656 18.701386 25.8744727 22.4723894M15.115609 12.1810914C16.108826 12.0704408 16.8392075 11.7904799 17.3067534 11.3412088 17.7742994 10.8919378 17.9982944 10.2285349 17.9787386 9.35100027 17.9589779 10.2680202 18.2665563 10.9314231 18.9014739 11.3412088 19.5363914 11.7509946 20.1850826 11.9272337 20.8475472 11.869926 19.6171525 11.9942482 18.831419 12.3121069 18.4903468 12.8235024 18.1492747 13.3348978 17.9787386 13.9152677 17.9787386 14.5646122 17.9517511 13.6672368 17.6675327 13.0471995 17.1260835 12.7045003 16.5846342 12.3618011 15.914476 12.1873315 15.115609 12.1810914z"/>
  </g>
</svg>
